<?xml version="1.0" encoding="UTF-8"?>
<!DOCTYPE svg PUBLIC "-//W3C//DTD SVG 1.1//EN" "http://www.w3.org/Graphics/SVG/1.1/DTD/svg11.dtd">
<!-- Creator: CorelDRAW 2018 (64-Bit) -->
<svg xmlns="http://www.w3.org/2000/svg" xml:space="preserve" width="800px" height="116px" version="1.1" style="shape-rendering:geometricPrecision; text-rendering:geometricPrecision; image-rendering:optimizeQuality; fill-rule:evenodd; clip-rule:evenodd"
viewBox="0 0 800 116.09"
 xmlns:xlink="http://www.w3.org/1999/xlink">
 <defs>
  <style type="text/css">
   <![CDATA[
    .str0 {stroke:#373435;stroke-width:2.08;stroke-miterlimit:2.61313}
    .fil1 {fill:#00B100}
    .fil0 {fill:#282828}
   ]]>
  </style>
 </defs>
 <g id="Layer_x0020_1">
  <metadata id="CorelCorpID_0Corel-Layer"/>
  <rect class="fil0 str0" x="0.05" y="0.05" width="799.9" height="115.99"/>
  <g id="_2353296296272">
   <path class="fil1" d="M221.59 45.04c-2.03,0.2 -3.84,1.05 -5.36,2.52 -1.18,1.14 -1.55,1.73 -2.4,3.88 -0.58,1.46 -0.88,2.09 -1.27,2.63 -1.07,1.5 -2.23,1.76 -6.94,1.57 -2.87,-0.12 -7.51,-0.14 -15.53,-0.04 -3.19,0.04 -6.38,0.05 -7.09,0.03l-1.29 -0.04 -0.38 -0.35c-0.49,-0.42 -0.77,-0.57 -1.25,-0.65 -0.75,-0.12 -1.55,0.12 -2.58,0.79l-0.62 0.4 -0.19 -0.13c-0.41,-0.27 -0.62,-0.33 -1.08,-0.33 -0.25,0.01 -0.47,0.03 -0.49,0.04 -0.01,0.02 -0.05,0.16 -0.07,0.31l-0.05 0.27 -2.06 0.04c-1.14,0.02 -5.59,0.06 -9.9,0.09 -4.32,0.02 -7.99,0.06 -8.15,0.08l-0.32 0.04 -0.15 0.38c-0.08,0.2 -0.28,0.68 -0.46,1.06 -0.17,0.37 -0.39,0.88 -0.49,1.11l-0.18 0.43 0.33 0.67c0.19,0.36 0.46,0.95 0.61,1.31 0.24,0.57 0.29,0.64 0.41,0.61 0.45,-0.12 1.22,-0.16 2.55,-0.16 0.82,0 1.58,-0.01 1.67,-0.03l0.18 -0.05 0 4.65c0,2.55 0.01,5.39 0.04,6.29l0.04 1.65 1.19 -0.04c0.66,-0.02 3.62,-0.06 6.57,-0.07l5.39 -0.05 0.05 -0.82c0.03,-0.45 0.04,-3.25 0.03,-6.23l-0.01 -5.41 0.58 -0.04c0.32,-0.02 0.96,-0.06 1.41,-0.08l0.84 -0.04 -0.02 0.41c-0.02,0.59 0.03,0.63 0.59,0.48 0.54,-0.15 1.21,-0.45 1.4,-0.64l0.14 -0.13 0.52 0.5c0.69,0.67 1.1,0.87 1.73,0.87 0.57,0 0.99,-0.13 1.58,-0.49 0.6,-0.35 0.98,-0.43 1.86,-0.38 0.39,0.02 2.02,-0.01 3.62,-0.07 4.42,-0.15 6.44,-0.21 12.16,-0.35 2.89,-0.06 6.01,-0.15 6.94,-0.19 3.35,-0.13 4.26,-0.14 4.9,-0.03 0.77,0.12 1.29,0.38 1.79,0.87 0.46,0.47 0.77,1 1.24,2.1 0.78,1.83 1.41,3.06 1.95,3.75 1.69,2.22 5.03,3.59 8.06,3.32 1.37,-0.13 2.59,-0.5 3.63,-1.12 2.05,-1.23 3.22,-2.51 4.3,-4.73 1.52,-3.14 2.05,-6.64 1.49,-9.93 -0.47,-2.83 -1.59,-5.07 -3.84,-7.69 -0.4,-0.46 -0.6,-0.64 -1.13,-0.96 -1.83,-1.15 -3.35,-1.72 -4.92,-1.88 -0.71,-0.07 -0.81,-0.07 -1.57,0l0 0zm1.81 4.53c0.85,0.22 1.57,0.74 1.85,1.32 0.42,0.89 0.45,2.46 0.07,3.33 -0.03,0.07 0.06,0.15 0.38,0.32 0.71,0.36 1.49,0.91 1.87,1.33 0.64,0.7 0.89,1.36 0.89,2.35 0,1.35 -0.58,2.46 -1.66,3.21 -0.44,0.3 -1.25,0.67 -1.47,0.67 -0.15,0 -0.15,0.07 0.03,0.43 0.35,0.67 0.45,1.68 0.26,2.5 -0.29,1.24 -1.24,2.2 -2.39,2.45 -0.2,0.04 -0.6,0.05 -0.9,0.04 -0.73,-0.04 -1.33,-0.32 -1.86,-0.84 -0.94,-0.96 -1.24,-2.3 -0.79,-3.6 0.09,-0.27 0.15,-0.53 0.13,-0.58 -0.05,-0.15 -0.33,-0.29 -0.84,-0.43 -0.93,-0.27 -1.63,-0.84 -2.09,-1.7 -0.29,-0.57 -0.42,-1.14 -0.42,-1.86 0,-1.92 1.14,-3.42 2.9,-3.81 0.15,-0.04 0.17,-0.06 0.17,-0.35 0,-0.17 -0.07,-0.53 -0.15,-0.79 -0.21,-0.7 -0.23,-0.86 -0.17,-1.34 0.19,-1.27 1.14,-2.28 2.5,-2.65 0.45,-0.12 1.25,-0.12 1.69,0l0 0z"/>
   <path class="fil1" d="M197.14 55.32c-0.09,0.09 -0.04,0.12 0.2,0.12 0.14,0 0.26,-0.03 0.27,-0.06 0.01,-0.08 -0.4,-0.12 -0.47,-0.06l0 0z"/>
  </g>
  <g id="_2353296294608">
   <path class="fil1" d="M109.27 9l0 6.63 -6.63 0 0 -6.63 -6.63 0 0 6.63 -6.64 0 0 -6.63 -6.63 0 0 6.63 0 13.27 6.63 6.63 0 26.54 -6.63 0 0 -6.64 -13.27 0 0 6.64 -13.26 0 0 -6.64 -13.27 0 0 6.64 -6.63 0 0 -26.54 6.63 -6.63 0 -13.27 0 -6.63 -6.63 0 0 6.63 -6.63 0 0 -6.63 -6.64 0 0 6.63 -6.63 0 0 -6.63 -6.63 0 0 6.63 0 13.27 6.63 6.63 0 26.54 0 46.43 33.17 0 0 -13.27c0,-7.33 5.94,-13.27 13.26,-13.27 7.33,0 13.27,5.94 13.27,13.27l0 13.27 33.16 0 0 -46.43 0 -26.54 6.63 -6.63 0 -13.27 0 -6.63 -6.63 0zm-86.23 53.07l0 -9.95c0,-1.84 1.49,-3.32 3.32,-3.32 1.83,0 3.32,1.48 3.32,3.32l0 9.95 -6.64 0zm72.97 0l0 -9.95c0,-1.84 1.48,-3.32 3.31,-3.32 1.84,0 3.32,1.48 3.32,3.32l0 9.95 -6.63 0z"/>
  </g>
  <g id="_2353296294800">
   <path class="fil1" d="M346.24 68.59c-1.58,-1.3 -3.46,-1.97 -5.57,-2.01 -1.64,-0.03 -2.32,0.13 -4.44,1.04 -1.44,0.62 -2.1,0.86 -2.76,0.96 -1.81,0.31 -2.82,-0.33 -6.02,-3.8 -1.94,-2.11 -5.21,-5.4 -10.95,-11 -2.28,-2.23 -4.55,-4.47 -5.03,-4.99l-0.88 -0.94 -0.03 -0.52c-0.05,-0.65 -0.14,-0.95 -0.43,-1.34 -0.44,-0.62 -1.18,-1.02 -2.38,-1.27l-0.72 -0.16 -0.04 -0.22c-0.1,-0.48 -0.2,-0.68 -0.53,-1 -0.19,-0.17 -0.35,-0.31 -0.38,-0.32 -0.02,0.01 -0.14,0.08 -0.26,0.17l-0.23 0.16 -1.48 -1.43c-0.83,-0.79 -4,-3.91 -7.07,-6.94 -3.07,-3.03 -5.69,-5.6 -5.82,-5.71l-0.25 -0.19 -0.37 0.16c-0.21,0.09 -0.69,0.28 -1.08,0.43 -0.39,0.14 -0.9,0.34 -1.14,0.43l-0.42 0.18 -0.24 0.71c-0.13,0.39 -0.35,1 -0.5,1.35 -0.23,0.58 -0.24,0.66 -0.15,0.72 0.41,0.24 0.99,0.76 1.92,1.7 0.58,0.58 1.12,1.11 1.21,1.15l0.15 0.1 -3.28 3.28c-1.81,1.81 -3.8,3.83 -4.42,4.49l-1.14 1.18 0.87 0.82c0.48,0.45 2.6,2.52 4.7,4.6l3.84 3.78 0.61 -0.55c0.34,-0.3 2.34,-2.27 4.43,-4.38l3.82 -3.84 0.44 0.39c0.24,0.21 0.72,0.63 1.06,0.94l0.62 0.55 -0.31 0.28c-0.43,0.41 -0.42,0.47 0.08,0.76 0.49,0.27 1.18,0.53 1.44,0.54l0.19 0.01 0.02 0.72c0.02,0.96 0.16,1.38 0.61,1.84 0.4,0.39 0.79,0.6 1.46,0.77 0.67,0.17 1,0.38 1.59,1.04 0.26,0.29 1.43,1.43 2.6,2.52 3.24,3.01 4.71,4.4 8.85,8.35 2.09,1.99 4.36,4.14 5.04,4.77 2.46,2.28 3.11,2.92 3.48,3.44 0.46,0.63 0.65,1.18 0.65,1.88 0,0.66 -0.15,1.26 -0.6,2.37 -0.74,1.84 -1.16,3.16 -1.28,4.02 -0.36,2.77 1.03,6.1 3.36,8.05 1.06,0.88 2.19,1.48 3.36,1.78 2.32,0.58 4.05,0.5 6.38,-0.31 3.3,-1.14 6.15,-3.25 8.08,-5.97 1.66,-2.33 2.45,-4.7 2.72,-8.15 0.05,-0.61 0.03,-0.87 -0.12,-1.48 -0.48,-2.1 -1.15,-3.58 -2.15,-4.81 -0.45,-0.55 -0.52,-0.62 -1.11,-1.1l0 0zm-1.92 4.48c0.44,0.76 0.58,1.63 0.37,2.23 -0.33,0.94 -1.42,2.07 -2.3,2.42 -0.07,0.02 -0.07,0.15 0.04,0.48 0.25,0.77 0.41,1.71 0.38,2.27 -0.04,0.95 -0.33,1.6 -1.03,2.3 -0.95,0.95 -2.15,1.33 -3.45,1.09 -0.51,-0.1 -1.35,-0.41 -1.5,-0.57 -0.11,-0.11 -0.16,-0.05 -0.29,0.33 -0.23,0.72 -0.87,1.5 -1.58,1.95 -1.09,0.67 -2.44,0.68 -3.43,0.04 -0.16,-0.12 -0.46,-0.38 -0.66,-0.61 -0.49,-0.54 -0.72,-1.16 -0.72,-1.91 0.01,-1.34 0.75,-2.5 1.99,-3.1 0.25,-0.13 0.48,-0.26 0.5,-0.31 0.06,-0.15 -0.03,-0.44 -0.29,-0.91 -0.47,-0.84 -0.57,-1.74 -0.27,-2.68 0.19,-0.6 0.5,-1.1 1.01,-1.61 1.36,-1.36 3.22,-1.62 4.74,-0.64 0.14,0.08 0.17,0.07 0.37,-0.13 0.12,-0.12 0.32,-0.42 0.46,-0.67 0.34,-0.64 0.43,-0.76 0.83,-1.06 1.02,-0.77 2.41,-0.8 3.63,-0.1 0.4,0.23 0.98,0.79 1.2,1.19l0 0z"/>
   <path class="fil1" d="M321.68 58.56c-0.12,0 -0.11,0.06 0.06,0.24 0.1,0.09 0.2,0.15 0.23,0.14 0.07,-0.04 -0.2,-0.37 -0.29,-0.38l0 0z"/>
  </g>
  <g id="_2353296292528">
   <path class="fil1" d="M450.16 87.86c-0.2,-2.03 -1.05,-3.84 -2.52,-5.36 -1.14,-1.19 -1.73,-1.55 -3.88,-2.4 -1.46,-0.59 -2.09,-0.89 -2.62,-1.27 -1.5,-1.07 -1.77,-2.23 -1.57,-6.95 0.12,-2.86 0.13,-7.51 0.03,-15.52 -0.04,-3.19 -0.05,-6.38 -0.03,-7.09l0.05 -1.29 0.34 -0.39c0.43,-0.48 0.58,-0.77 0.65,-1.25 0.13,-0.75 -0.12,-1.55 -0.79,-2.58l-0.4 -0.61 0.13 -0.19c0.27,-0.41 0.34,-0.62 0.33,-1.08 -0.01,-0.25 -0.03,-0.47 -0.04,-0.49 -0.02,-0.01 -0.15,-0.05 -0.3,-0.08l-0.28 -0.05 -0.04 -2.05c-0.02,-1.14 -0.06,-5.6 -0.08,-9.91 -0.03,-4.31 -0.07,-7.98 -0.09,-8.15l-0.04 -0.31 -0.37 -0.15c-0.21,-0.08 -0.69,-0.29 -1.07,-0.46 -0.37,-0.18 -0.88,-0.39 -1.11,-0.5l-0.42 -0.17 -0.67 0.33c-0.37,0.18 -0.96,0.46 -1.31,0.61 -0.57,0.24 -0.64,0.29 -0.62,0.4 0.12,0.46 0.17,1.23 0.16,2.55 0,0.83 0.01,1.58 0.04,1.68l0.04 0.17 -4.64 0c-2.56,0 -5.4,0.02 -6.3,0.05l-1.65 0.03 0.04 1.2c0.02,0.65 0.06,3.62 0.08,6.57l0.04 5.39 0.82 0.04c0.45,0.03 3.26,0.05 6.23,0.04l5.41 -0.01 0.04 0.58c0.02,0.32 0.06,0.96 0.08,1.41l0.04 0.83 -0.41 -0.02c-0.59,-0.02 -0.62,0.03 -0.47,0.6 0.15,0.54 0.45,1.2 0.63,1.4l0.13 0.14 -0.5 0.52c-0.66,0.69 -0.86,1.09 -0.86,1.73 0,0.56 0.13,0.99 0.48,1.58 0.35,0.6 0.44,0.98 0.39,1.86 -0.02,0.39 0,2.02 0.06,3.62 0.15,4.42 0.21,6.44 0.35,12.16 0.07,2.88 0.15,6.01 0.19,6.93 0.13,3.36 0.14,4.27 0.03,4.9 -0.12,0.78 -0.38,1.3 -0.87,1.8 -0.46,0.46 -1,0.77 -2.1,1.24 -1.83,0.78 -3.06,1.41 -3.75,1.94 -2.21,1.7 -3.59,5.04 -3.31,8.06 0.12,1.37 0.5,2.6 1.11,3.64 1.23,2.05 2.51,3.22 4.73,4.29 3.14,1.53 6.64,2.05 9.94,1.5 2.82,-0.48 5.06,-1.59 7.68,-3.84 0.46,-0.4 0.64,-0.6 0.96,-1.13 1.15,-1.83 1.72,-3.35 1.89,-4.92 0.06,-0.72 0.06,-0.81 -0.01,-1.57l0 0zm-4.53 1.81c-0.22,0.85 -0.74,1.57 -1.31,1.84 -0.9,0.43 -2.47,0.46 -3.34,0.08 -0.07,-0.03 -0.15,0.06 -0.31,0.37 -0.37,0.72 -0.92,1.5 -1.34,1.88 -0.7,0.64 -1.36,0.89 -2.35,0.89 -1.35,0 -2.46,-0.58 -3.21,-1.67 -0.3,-0.43 -0.66,-1.24 -0.66,-1.46 0,-0.16 -0.07,-0.15 -0.44,0.03 -0.67,0.35 -1.68,0.45 -2.5,0.26 -1.23,-0.3 -2.2,-1.25 -2.44,-2.39 -0.04,-0.21 -0.06,-0.6 -0.05,-0.9 0.05,-0.73 0.32,-1.34 0.84,-1.86 0.96,-0.94 2.3,-1.24 3.6,-0.79 0.27,0.09 0.53,0.15 0.58,0.13 0.15,-0.05 0.29,-0.33 0.44,-0.85 0.26,-0.92 0.83,-1.62 1.7,-2.08 0.56,-0.29 1.13,-0.42 1.85,-0.42 1.93,0 3.43,1.13 3.81,2.9 0.04,0.15 0.07,0.17 0.35,0.17 0.17,0 0.53,-0.07 0.8,-0.15 0.69,-0.22 0.85,-0.24 1.34,-0.17 1.26,0.18 2.27,1.14 2.64,2.5 0.12,0.45 0.12,1.25 0,1.69l0 0z"/>
   <path class="fil1" d="M439.88 63.4c-0.09,-0.08 -0.12,-0.03 -0.12,0.21 0,0.14 0.03,0.26 0.06,0.26 0.08,0.02 0.12,-0.4 0.06,-0.47l0 0z"/>
  </g>
  <g id="_2353296291408">
   <path class="fil1" d="M547.08 89.82c1.3,-1.58 1.97,-3.45 2.01,-5.57 0.03,-1.64 -0.13,-2.32 -1.05,-4.44 -0.61,-1.44 -0.85,-2.1 -0.95,-2.76 -0.31,-1.81 0.33,-2.82 3.8,-6.01 2.11,-1.95 5.4,-5.22 11,-10.96 2.23,-2.28 4.47,-4.54 4.99,-5.03l0.94 -0.88 0.52 -0.03c0.65,-0.05 0.95,-0.14 1.34,-0.43 0.62,-0.44 1.02,-1.18 1.27,-2.38l0.16 -0.72 0.22 -0.04c0.48,-0.09 0.67,-0.2 1,-0.53 0.17,-0.18 0.31,-0.35 0.31,-0.37 0,-0.03 -0.07,-0.15 -0.16,-0.27l-0.16 -0.23 1.43 -1.48c0.79,-0.82 3.91,-4 6.94,-7.07 3.03,-3.06 5.6,-5.68 5.71,-5.82l0.19 -0.25 -0.16 -0.37c-0.09,-0.2 -0.28,-0.69 -0.43,-1.08 -0.14,-0.39 -0.34,-0.9 -0.44,-1.13l-0.17 -0.43 -0.71 -0.24c-0.39,-0.13 -1,-0.35 -1.36,-0.5 -0.57,-0.23 -0.65,-0.24 -0.72,-0.14 -0.23,0.4 -0.75,0.98 -1.69,1.91 -0.58,0.58 -1.11,1.13 -1.16,1.21l-0.09 0.16 -3.28 -3.29c-1.81,-1.8 -3.83,-3.8 -4.49,-4.42l-1.19 -1.14 -0.81 0.87c-0.45,0.48 -2.52,2.6 -4.6,4.71l-3.78 3.84 0.55 0.61c0.3,0.34 2.27,2.33 4.38,4.43l3.84 3.82 -0.39 0.43c-0.21,0.25 -0.63,0.72 -0.94,1.06l-0.56 0.62 -0.28 -0.31c-0.4,-0.42 -0.46,-0.42 -0.75,0.09 -0.27,0.48 -0.53,1.17 -0.54,1.43l-0.01 0.2 -0.72 0.01c-0.96,0.02 -1.39,0.16 -1.84,0.62 -0.39,0.39 -0.6,0.79 -0.78,1.45 -0.16,0.67 -0.37,1 -1.03,1.59 -0.29,0.26 -1.43,1.44 -2.52,2.61 -3.02,3.23 -4.4,4.7 -8.35,8.84 -1.99,2.09 -4.14,4.36 -4.77,5.04 -2.28,2.47 -2.92,3.12 -3.44,3.49 -0.64,0.46 -1.18,0.64 -1.89,0.65 -0.65,0 -1.25,-0.16 -2.36,-0.61 -1.84,-0.74 -3.16,-1.16 -4.03,-1.28 -2.76,-0.36 -6.09,1.03 -8.04,3.36 -0.88,1.06 -1.48,2.19 -1.78,3.37 -0.58,2.31 -0.5,4.04 0.31,6.37 1.14,3.3 3.24,6.15 5.97,8.08 2.33,1.67 4.7,2.46 8.15,2.72 0.6,0.05 0.87,0.03 1.47,-0.11 2.11,-0.49 3.59,-1.16 4.82,-2.16 0.55,-0.45 0.62,-0.52 1.1,-1.11l0 0zm-4.48 -1.92c-0.76,0.45 -1.63,0.59 -2.24,0.38 -0.93,-0.34 -2.06,-1.43 -2.41,-2.31 -0.03,-0.07 -0.15,-0.06 -0.48,0.04 -0.77,0.25 -1.71,0.41 -2.28,0.38 -0.94,-0.04 -1.59,-0.33 -2.29,-1.03 -0.95,-0.95 -1.33,-2.15 -1.09,-3.45 0.1,-0.51 0.41,-1.35 0.57,-1.5 0.11,-0.11 0.05,-0.16 -0.33,-0.28 -0.72,-0.24 -1.5,-0.88 -1.95,-1.59 -0.67,-1.08 -0.68,-2.44 -0.04,-3.42 0.11,-0.17 0.38,-0.46 0.61,-0.67 0.54,-0.48 1.16,-0.72 1.9,-0.72 1.35,0.01 2.51,0.75 3.11,1.99 0.12,0.25 0.26,0.48 0.31,0.5 0.15,0.07 0.44,-0.03 0.91,-0.29 0.84,-0.47 1.74,-0.56 2.67,-0.27 0.61,0.19 1.11,0.5 1.62,1.01 1.36,1.36 1.61,3.23 0.64,4.75 -0.08,0.13 -0.07,0.16 0.13,0.36 0.12,0.12 0.42,0.33 0.67,0.46 0.64,0.34 0.76,0.44 1.06,0.83 0.77,1.02 0.8,2.41 0.1,3.64 -0.23,0.39 -0.8,0.97 -1.19,1.19l0 0z"/>
   <path class="fil1" d="M557.1 65.26c0,-0.12 -0.05,-0.11 -0.23,0.06 -0.09,0.1 -0.16,0.21 -0.14,0.23 0.04,0.07 0.37,-0.2 0.37,-0.29l0 0z"/>
  </g>
  <g id="_2353296290704">
   <path class="fil1" d="M649.72 74.05c2.03,-0.2 3.84,-1.05 5.36,-2.52 1.18,-1.13 1.55,-1.73 2.4,-3.88 0.58,-1.45 0.88,-2.09 1.27,-2.62 1.07,-1.5 2.23,-1.77 6.94,-1.57 2.87,0.12 7.52,0.13 15.53,0.03 3.19,-0.04 6.38,-0.05 7.09,-0.03l1.29 0.05 0.38 0.34c0.49,0.43 0.77,0.58 1.25,0.65 0.75,0.13 1.55,-0.12 2.59,-0.79l0.61 -0.4 0.19 0.13c0.41,0.27 0.62,0.34 1.08,0.33 0.25,-0.01 0.47,-0.02 0.49,-0.04 0.01,-0.02 0.05,-0.15 0.07,-0.3l0.05 -0.28 2.06 -0.04c1.14,-0.02 5.59,-0.06 9.91,-0.08 4.31,-0.03 7.98,-0.07 8.15,-0.08l0.31 -0.05 0.15 -0.37c0.08,-0.21 0.28,-0.68 0.46,-1.06 0.17,-0.38 0.39,-0.89 0.49,-1.12l0.18 -0.42 -0.33 -0.67c-0.18,-0.37 -0.46,-0.96 -0.61,-1.31 -0.24,-0.57 -0.29,-0.64 -0.41,-0.62 -0.45,0.12 -1.22,0.17 -2.55,0.16 -0.82,0 -1.58,0.01 -1.67,0.04l-0.17 0.04 0 -4.64c0,-2.56 -0.02,-5.39 -0.05,-6.3l-0.04 -1.64 -1.19 0.03c-0.66,0.02 -3.62,0.06 -6.57,0.08l-5.39 0.04 -0.04 0.82c-0.04,0.45 -0.05,3.26 -0.04,6.23l0.01 5.41 -0.58 0.04c-0.32,0.03 -0.96,0.06 -1.41,0.08l-0.83 0.05 0.01 -0.42c0.02,-0.58 -0.03,-0.62 -0.59,-0.47 -0.54,0.15 -1.21,0.45 -1.4,0.63l-0.14 0.13 -0.52 -0.5c-0.69,-0.66 -1.09,-0.86 -1.73,-0.86 -0.56,0 -0.99,0.13 -1.58,0.48 -0.6,0.36 -0.98,0.44 -1.86,0.39 -0.39,-0.02 -2.02,0 -3.62,0.06 -4.42,0.16 -6.44,0.21 -12.16,0.35 -2.89,0.07 -6.01,0.16 -6.93,0.19 -3.36,0.13 -4.27,0.14 -4.9,0.03 -0.78,-0.12 -1.3,-0.38 -1.8,-0.87 -0.46,-0.46 -0.77,-0.99 -1.24,-2.1 -0.78,-1.83 -1.41,-3.06 -1.94,-3.75 -1.7,-2.21 -5.04,-3.59 -8.07,-3.31 -1.36,0.12 -2.59,0.5 -3.63,1.12 -2.05,1.22 -3.22,2.5 -4.3,4.72 -1.52,3.14 -2.05,6.64 -1.49,9.94 0.47,2.82 1.59,5.06 3.84,7.68 0.4,0.47 0.6,0.64 1.13,0.97 1.83,1.14 3.35,1.71 4.92,1.88 0.71,0.07 0.81,0.07 1.57,-0.01l0 0zm-1.81 -4.52c-0.85,-0.23 -1.57,-0.75 -1.85,-1.32 -0.42,-0.9 -0.45,-2.47 -0.07,-3.34 0.03,-0.07 -0.06,-0.15 -0.38,-0.31 -0.71,-0.37 -1.49,-0.92 -1.87,-1.34 -0.64,-0.7 -0.89,-1.36 -0.89,-2.35 0,-1.35 0.58,-2.46 1.67,-3.21 0.43,-0.29 1.24,-0.66 1.46,-0.66 0.15,0 0.15,-0.07 -0.03,-0.43 -0.35,-0.68 -0.45,-1.69 -0.26,-2.5 0.29,-1.24 1.24,-2.21 2.39,-2.45 0.2,-0.04 0.6,-0.06 0.9,-0.05 0.73,0.05 1.33,0.32 1.86,0.85 0.94,0.95 1.24,2.3 0.79,3.6 -0.09,0.26 -0.15,0.52 -0.13,0.57 0.05,0.15 0.33,0.29 0.85,0.44 0.92,0.26 1.62,0.83 2.08,1.7 0.29,0.56 0.42,1.14 0.42,1.85 0,1.93 -1.14,3.43 -2.9,3.82 -0.15,0.03 -0.17,0.06 -0.17,0.35 0,0.16 0.07,0.52 0.15,0.79 0.22,0.69 0.23,0.85 0.17,1.34 -0.19,1.27 -1.14,2.27 -2.5,2.64 -0.45,0.12 -1.25,0.13 -1.69,0.01l0 0z"/>
   <path class="fil1" d="M674.17 63.77c0.09,-0.09 0.04,-0.12 -0.2,-0.12 -0.14,0 -0.26,0.03 -0.26,0.06 -0.02,0.08 0.4,0.12 0.46,0.06l0 0z"/>
  </g>
 </g>
</svg>
